<svg xmlns="http://www.w3.org/2000/svg" xmlns:xlink="http://www.w3.org/1999/xlink" width="260" height="385" viewBox="0 0 260 385"><rect width="100%" height="100%" fill="#DDDDDD"/><path d="M60.64 184.11L62.89 184.11L62.89 197.84L61.58 197.84Q61.28 197.84 61.07 197.74Q60.87 197.64 60.68 197.41L60.68 197.41L53.51 188.25Q53.56 188.88 53.56 189.41L53.56 189.41L53.56 197.84L51.31 197.84L51.31 184.11L52.65 184.11Q52.81 184.11 52.93 184.12Q53.05 184.14 53.14 184.18Q53.23 184.22 53.32 184.30Q53.40 184.38 53.51 184.52L53.51 184.52L60.71 193.71Q60.68 193.38 60.66 193.06Q60.64 192.73 60.64 192.46L60.64 192.46L60.64 184.11ZM69.89 187.94L69.89 187.94Q70.98 187.94 71.86 188.30Q72.75 188.65 73.38 189.29Q74.02 189.94 74.36 190.87Q74.70 191.80 74.70 192.95L74.70 192.95Q74.70 194.11 74.36 195.04Q74.02 195.97 73.38 196.63Q72.75 197.28 71.86 197.63Q70.98 197.99 69.89 197.99L69.89 197.99Q68.80 197.99 67.91 197.63Q67.02 197.28 66.38 196.63Q65.75 195.97 65.40 195.04Q65.06 194.11 65.06 192.95L65.06 192.95Q65.06 191.80 65.40 190.87Q65.75 189.94 66.38 189.29Q67.02 188.65 67.91 188.30Q68.80 187.94 69.89 187.94ZM69.89 196.18L69.89 196.18Q71.11 196.18 71.69 195.36Q72.28 194.55 72.28 192.97L72.28 192.97Q72.28 191.39 71.69 190.57Q71.11 189.74 69.89 189.74L69.89 189.74Q68.66 189.74 68.06 190.57Q67.47 191.40 67.47 192.97L67.47 192.97Q67.47 194.54 68.06 195.36Q68.66 196.18 69.89 196.18ZM81.19 188.10L83.55 188.10L83.55 197.84L81.19 197.84L81.19 188.10ZM83.87 185.26L83.87 185.26Q83.87 185.56 83.74 185.83Q83.62 186.09 83.42 186.29Q83.21 186.49 82.94 186.61Q82.66 186.73 82.35 186.73L82.35 186.73Q82.04 186.73 81.77 186.61Q81.50 186.49 81.30 186.29Q81.10 186.09 80.98 185.83Q80.87 185.56 80.87 185.26L80.87 185.26Q80.87 184.94 80.98 184.67Q81.10 184.39 81.30 184.19Q81.50 183.99 81.77 183.87Q82.04 183.76 82.35 183.76L82.35 183.76Q82.66 183.76 82.94 183.87Q83.21 183.99 83.42 184.19Q83.62 184.39 83.74 184.67Q83.87 184.94 83.87 185.26ZM88.29 197.84L85.94 197.84L85.94 188.10L87.37 188.10Q87.83 188.10 87.97 188.52L87.97 188.52L88.12 189.25Q88.38 188.96 88.66 188.72Q88.94 188.49 89.26 188.32Q89.58 188.14 89.94 188.04Q90.31 187.94 90.75 187.94L90.75 187.94Q91.67 187.94 92.26 188.44Q92.86 188.94 93.15 189.77L93.15 189.77Q93.38 189.28 93.72 188.94Q94.06 188.59 94.47 188.37Q94.88 188.15 95.34 188.05Q95.80 187.94 96.27 187.94L96.27 187.94Q97.07 187.94 97.70 188.19Q98.33 188.44 98.75 188.91Q99.18 189.39 99.41 190.07Q99.63 190.76 99.63 191.64L99.63 191.64L99.63 197.84L97.28 197.84L97.28 191.64Q97.28 190.71 96.87 190.24Q96.47 189.77 95.68 189.77L95.68 189.77Q95.32 189.77 95.01 189.89Q94.70 190.02 94.47 190.25Q94.23 190.48 94.10 190.83Q93.97 191.18 93.97 191.64L93.97 191.64L93.97 197.84L91.61 197.84L91.61 191.64Q91.61 190.66 91.22 190.22Q90.82 189.77 90.06 189.77L90.06 189.77Q89.55 189.77 89.11 190.02Q88.67 190.27 88.29 190.71L88.29 190.71L88.29 197.84ZM107.00 195.33L107.00 193.68Q105.98 193.73 105.29 193.86Q104.60 193.99 104.18 194.19Q103.76 194.39 103.58 194.65Q103.40 194.92 103.40 195.23L103.40 195.23Q103.40 195.85 103.77 196.11Q104.13 196.38 104.72 196.38L104.72 196.38Q105.44 196.38 105.97 196.12Q106.50 195.86 107.00 195.33L107.00 195.33ZM102.04 190.21L101.62 189.46Q103.30 187.92 105.67 187.92L105.67 187.92Q106.53 187.92 107.20 188.20Q107.87 188.48 108.34 188.98Q108.81 189.47 109.05 190.17Q109.29 190.86 109.29 191.69L109.29 191.69L109.29 197.84L108.23 197.84Q107.89 197.84 107.71 197.74Q107.53 197.64 107.43 197.34L107.43 197.34L107.22 196.64Q106.85 196.97 106.50 197.22Q106.15 197.47 105.77 197.64Q105.39 197.82 104.95 197.91Q104.52 198.00 104.00 198.00L104.00 198.00Q103.38 198.00 102.86 197.83Q102.34 197.66 101.96 197.33Q101.58 197.00 101.37 196.50Q101.16 196.01 101.16 195.35L101.16 195.35Q101.16 194.98 101.28 194.62Q101.41 194.25 101.69 193.92Q101.97 193.59 102.41 193.29Q102.86 193.00 103.51 192.78Q104.16 192.56 105.02 192.42Q105.89 192.29 107.00 192.26L107.00 192.26L107.00 191.69Q107.00 190.71 106.58 190.24Q106.16 189.77 105.38 189.77L105.38 189.77Q104.81 189.77 104.43 189.90Q104.06 190.03 103.77 190.20Q103.49 190.37 103.25 190.50Q103.02 190.63 102.73 190.63L102.73 190.63Q102.49 190.63 102.32 190.50Q102.15 190.38 102.04 190.21L102.04 190.21ZM115.06 192.73L115.06 192.73Q115.49 192.73 115.82 192.61Q116.14 192.50 116.35 192.29Q116.57 192.08 116.68 191.78Q116.79 191.49 116.79 191.14L116.79 191.14Q116.79 190.41 116.35 189.99Q115.92 189.57 115.06 189.57L115.06 189.57Q114.19 189.57 113.76 189.99Q113.33 190.41 113.33 191.14L113.33 191.14Q113.33 191.48 113.44 191.77Q113.55 192.07 113.76 192.28Q113.97 192.50 114.30 192.61Q114.63 192.73 115.06 192.73ZM117.71 198.28L117.71 198.28Q117.71 198.00 117.54 197.82Q117.36 197.63 117.07 197.53Q116.78 197.44 116.38 197.39Q115.99 197.34 115.55 197.32Q115.10 197.29 114.63 197.27Q114.16 197.25 113.72 197.20L113.72 197.20Q113.33 197.42 113.09 197.71Q112.84 198.01 112.84 198.39L112.84 198.39Q112.84 198.65 112.97 198.87Q113.10 199.10 113.38 199.26Q113.66 199.42 114.11 199.51Q114.55 199.60 115.20 199.60L115.20 199.60Q115.85 199.60 116.33 199.50Q116.80 199.40 117.11 199.23Q117.42 199.05 117.56 198.81Q117.71 198.57 117.71 198.28ZM117.24 188.43L120.04 188.43L120.04 189.30Q120.04 189.72 119.54 189.82L119.54 189.82L118.67 189.98Q118.87 190.48 118.87 191.08L118.87 191.08Q118.87 191.80 118.58 192.39Q118.29 192.97 117.77 193.38Q117.26 193.79 116.56 194.01Q115.86 194.23 115.06 194.23L115.06 194.23Q114.77 194.23 114.51 194.21Q114.24 194.18 113.98 194.13L113.98 194.13Q113.53 194.40 113.53 194.75L113.53 194.75Q113.53 195.04 113.80 195.18Q114.07 195.32 114.51 195.37Q114.96 195.43 115.53 195.44Q116.10 195.46 116.70 195.51Q117.30 195.55 117.87 195.67Q118.44 195.79 118.88 196.05Q119.33 196.30 119.60 196.75Q119.87 197.19 119.87 197.88L119.87 197.88Q119.87 198.53 119.55 199.14Q119.24 199.74 118.63 200.22Q118.03 200.69 117.15 200.98Q116.27 201.27 115.15 201.27L115.15 201.27Q114.05 201.27 113.23 201.06Q112.42 200.85 111.87 200.49Q111.33 200.13 111.07 199.67Q110.80 199.20 110.80 198.70L110.80 198.70Q110.80 198.01 111.21 197.55Q111.63 197.09 112.35 196.82L112.35 196.82Q111.96 196.62 111.73 196.29Q111.50 195.95 111.50 195.41L111.50 195.41Q111.50 195.19 111.58 194.96Q111.66 194.73 111.82 194.50Q111.98 194.27 112.22 194.07Q112.45 193.86 112.78 193.70L112.78 193.70Q112.04 193.30 111.61 192.64Q111.19 191.97 111.19 191.08L111.19 191.08Q111.19 190.36 111.48 189.77Q111.77 189.19 112.29 188.78Q112.80 188.36 113.51 188.14Q114.22 187.93 115.06 187.93L115.06 187.93Q115.68 187.93 116.23 188.05Q116.79 188.18 117.24 188.43L117.24 188.43ZM123.38 191.85L127.81 191.85Q127.81 191.39 127.68 190.99Q127.55 190.59 127.29 190.28Q127.04 189.98 126.64 189.80Q126.25 189.63 125.72 189.63L125.72 189.63Q124.71 189.63 124.12 190.21Q123.54 190.79 123.38 191.85L123.38 191.85ZM129.36 193.26L123.33 193.26Q123.39 194.02 123.60 194.56Q123.81 195.11 124.15 195.46Q124.49 195.82 124.96 196.00Q125.43 196.17 126.00 196.17L126.00 196.17Q126.57 196.17 126.98 196.04Q127.40 195.91 127.71 195.74Q128.01 195.58 128.25 195.45Q128.48 195.32 128.70 195.32L128.70 195.32Q128.99 195.32 129.14 195.54L129.14 195.54L129.81 196.39Q129.42 196.85 128.94 197.16Q128.45 197.46 127.92 197.65Q127.40 197.83 126.85 197.91Q126.30 197.99 125.79 197.99L125.79 197.99Q124.77 197.99 123.90 197.65Q123.03 197.31 122.38 196.65Q121.73 195.99 121.36 195.02Q120.99 194.04 120.99 192.76L120.99 192.76Q120.99 191.76 121.32 190.88Q121.64 190.01 122.24 189.36Q122.85 188.70 123.72 188.32Q124.58 187.94 125.68 187.94L125.68 187.94Q126.60 187.94 127.38 188.24Q128.16 188.53 128.72 189.10Q129.28 189.66 129.60 190.49Q129.91 191.31 129.91 192.36L129.91 192.36Q129.91 192.89 129.80 193.08Q129.69 193.26 129.36 193.26L129.36 193.26ZM141.44 195.33L141.44 193.68Q140.42 193.73 139.73 193.86Q139.03 193.99 138.62 194.19Q138.20 194.39 138.02 194.65Q137.84 194.92 137.84 195.23L137.84 195.23Q137.84 195.85 138.20 196.11Q138.57 196.38 139.16 196.38L139.16 196.38Q139.88 196.38 140.41 196.12Q140.93 195.86 141.44 195.33L141.44 195.33ZM136.48 190.21L136.06 189.46Q137.74 187.92 140.11 187.92L140.11 187.92Q140.96 187.92 141.64 188.20Q142.31 188.48 142.78 188.98Q143.24 189.47 143.49 190.17Q143.73 190.86 143.73 191.69L143.73 191.69L143.73 197.84L142.66 197.84Q142.33 197.84 142.15 197.74Q141.97 197.64 141.87 197.34L141.87 197.34L141.66 196.64Q141.29 196.97 140.93 197.22Q140.58 197.47 140.20 197.64Q139.82 197.82 139.39 197.91Q138.96 198.00 138.44 198.00L138.44 198.00Q137.82 198.00 137.30 197.83Q136.77 197.66 136.39 197.33Q136.01 197.00 135.80 196.50Q135.60 196.01 135.60 195.35L135.60 195.35Q135.60 194.98 135.72 194.62Q135.84 194.25 136.12 193.92Q136.40 193.59 136.85 193.29Q137.30 193.00 137.95 192.78Q138.60 192.56 139.46 192.42Q140.33 192.29 141.44 192.26L141.44 192.26L141.44 191.69Q141.44 190.71 141.02 190.24Q140.60 189.77 139.81 189.77L139.81 189.77Q139.24 189.77 138.87 189.90Q138.49 190.03 138.21 190.20Q137.92 190.37 137.69 190.50Q137.46 190.63 137.17 190.63L137.17 190.63Q136.93 190.63 136.75 190.50Q136.58 190.38 136.48 190.21L136.48 190.21ZM152.87 188.10L154.72 188.10L150.85 197.84L148.72 197.84L144.86 188.10L146.80 188.10Q147.06 188.10 147.24 188.22Q147.41 188.34 147.47 188.53L147.47 188.53L149.35 193.74Q149.50 194.20 149.62 194.63Q149.73 195.07 149.82 195.51L149.82 195.51Q149.91 195.07 150.03 194.63Q150.14 194.20 150.30 193.74L150.30 193.74L152.22 188.53Q152.29 188.34 152.46 188.22Q152.63 188.10 152.87 188.10L152.87 188.10ZM161.11 195.33L161.11 193.68Q160.10 193.73 159.40 193.86Q158.71 193.99 158.29 194.19Q157.87 194.39 157.69 194.65Q157.51 194.92 157.51 195.23L157.51 195.23Q157.51 195.85 157.88 196.11Q158.24 196.38 158.83 196.38L158.83 196.38Q159.55 196.38 160.08 196.12Q160.61 195.86 161.11 195.33L161.11 195.33ZM156.15 190.21L155.74 189.46Q157.42 187.92 159.78 187.92L159.78 187.92Q160.64 187.92 161.31 188.20Q161.99 188.48 162.45 188.98Q162.92 189.47 163.16 190.17Q163.40 190.86 163.40 191.69L163.40 191.69L163.40 197.84L162.34 197.84Q162.01 197.84 161.82 197.74Q161.64 197.64 161.54 197.34L161.54 197.34L161.33 196.64Q160.96 196.97 160.61 197.22Q160.26 197.47 159.88 197.64Q159.50 197.82 159.07 197.91Q158.63 198.00 158.11 198.00L158.11 198.00Q157.49 198.00 156.97 197.83Q156.45 197.66 156.07 197.33Q155.69 197.00 155.48 196.50Q155.27 196.01 155.27 195.35L155.27 195.35Q155.27 194.98 155.39 194.62Q155.52 194.25 155.80 193.92Q156.08 193.59 156.52 193.29Q156.97 193.00 157.62 192.78Q158.27 192.56 159.14 192.42Q160.00 192.29 161.11 192.26L161.11 192.26L161.11 191.69Q161.11 190.71 160.69 190.24Q160.28 189.77 159.49 189.77L159.49 189.77Q158.92 189.77 158.54 189.90Q158.17 190.03 157.88 190.20Q157.60 190.37 157.36 190.50Q157.13 190.63 156.85 190.63L156.85 190.63Q156.60 190.63 156.43 190.50Q156.26 190.38 156.15 190.21L156.15 190.21ZM165.68 188.10L168.04 188.10L168.04 197.84L165.68 197.84L165.68 188.10ZM168.36 185.26L168.36 185.26Q168.36 185.56 168.24 185.83Q168.11 186.09 167.91 186.29Q167.71 186.49 167.43 186.61Q167.15 186.73 166.84 186.73L166.84 186.73Q166.54 186.73 166.27 186.61Q166.00 186.49 165.80 186.29Q165.60 186.09 165.48 185.83Q165.36 185.56 165.36 185.26L165.36 185.26Q165.36 184.94 165.48 184.67Q165.60 184.39 165.80 184.19Q166.00 183.99 166.27 183.87Q166.54 183.76 166.84 183.76L166.84 183.76Q167.15 183.76 167.43 183.87Q167.71 183.99 167.91 184.19Q168.11 184.39 168.24 184.67Q168.36 184.94 168.36 185.26ZM170.46 183.73L172.81 183.73L172.81 197.84L170.46 197.84L170.46 183.73ZM180.30 195.33L180.30 193.68Q179.29 193.73 178.59 193.86Q177.90 193.99 177.48 194.19Q177.06 194.39 176.88 194.65Q176.70 194.92 176.70 195.23L176.70 195.23Q176.70 195.85 177.07 196.11Q177.43 196.38 178.02 196.38L178.02 196.38Q178.74 196.38 179.27 196.12Q179.80 195.86 180.30 195.33L180.30 195.33ZM175.34 190.21L174.93 189.46Q176.61 187.92 178.97 187.92L178.97 187.92Q179.83 187.92 180.50 188.20Q181.18 188.48 181.64 188.98Q182.11 189.47 182.35 190.17Q182.59 190.86 182.59 191.69L182.59 191.69L182.59 197.84L181.53 197.84Q181.20 197.84 181.01 197.74Q180.83 197.64 180.73 197.34L180.73 197.34L180.52 196.64Q180.15 196.97 179.80 197.22Q179.45 197.47 179.07 197.64Q178.69 197.82 178.26 197.91Q177.82 198.00 177.30 198.00L177.30 198.00Q176.68 198.00 176.16 197.83Q175.64 197.66 175.26 197.33Q174.88 197.00 174.67 196.50Q174.46 196.01 174.46 195.35L174.46 195.35Q174.46 194.98 174.58 194.62Q174.71 194.25 174.99 193.92Q175.27 193.59 175.71 193.29Q176.16 193.00 176.81 192.78Q177.46 192.56 178.33 192.42Q179.19 192.29 180.30 192.26L180.30 192.26L180.30 191.69Q180.30 190.71 179.88 190.24Q179.47 189.77 178.68 189.77L178.68 189.77Q178.11 189.77 177.73 189.90Q177.36 190.03 177.07 190.20Q176.79 190.37 176.55 190.50Q176.32 190.63 176.04 190.63L176.04 190.63Q175.79 190.63 175.62 190.50Q175.45 190.38 175.34 190.21L175.34 190.21ZM187.14 190.95L187.14 195.32Q187.54 195.80 188.01 196.00Q188.48 196.20 189.00 196.20L189.00 196.20Q189.55 196.20 189.98 196.01Q190.41 195.81 190.71 195.40Q191.02 194.98 191.18 194.34Q191.34 193.70 191.34 192.81L191.34 192.81Q191.34 191.20 190.81 190.49Q190.28 189.77 189.28 189.77L189.28 189.77Q188.61 189.77 188.10 190.08Q187.60 190.39 187.14 190.95L187.14 190.95ZM187.14 183.73L187.14 189.29Q187.73 188.68 188.45 188.31Q189.17 187.94 190.09 187.94L190.09 187.94Q190.93 187.94 191.61 188.28Q192.29 188.61 192.77 189.23Q193.25 189.85 193.51 190.74Q193.76 191.62 193.76 192.72L193.76 192.72Q193.76 193.91 193.47 194.88Q193.18 195.85 192.63 196.54Q192.08 197.23 191.31 197.61Q190.54 197.99 189.60 197.99L189.60 197.99Q189.15 197.99 188.78 197.90Q188.41 197.81 188.09 197.64Q187.78 197.48 187.52 197.25Q187.26 197.02 187.02 196.73L187.02 196.73L186.91 197.39Q186.86 197.63 186.72 197.74Q186.58 197.84 186.34 197.84L186.34 197.84L184.80 197.84L184.80 183.73L187.14 183.73ZM195.61 183.73L197.95 183.73L197.95 197.84L195.61 197.84L195.61 183.73ZM202.15 191.85L206.58 191.85Q206.58 191.39 206.45 190.99Q206.32 190.59 206.07 190.28Q205.81 189.98 205.42 189.80Q205.02 189.63 204.50 189.63L204.50 189.63Q203.48 189.63 202.90 190.21Q202.31 190.79 202.15 191.85L202.15 191.85ZM208.14 193.26L202.10 193.26Q202.16 194.02 202.37 194.56Q202.58 195.11 202.92 195.46Q203.26 195.82 203.73 196.00Q204.20 196.17 204.77 196.17L204.77 196.17Q205.34 196.17 205.76 196.04Q206.17 195.91 206.48 195.74Q206.79 195.58 207.02 195.45Q207.25 195.32 207.47 195.32L207.47 195.32Q207.77 195.32 207.91 195.54L207.91 195.54L208.58 196.39Q208.19 196.85 207.71 197.16Q207.23 197.46 206.70 197.65Q206.17 197.83 205.62 197.91Q205.08 197.99 204.57 197.99L204.57 197.99Q203.55 197.99 202.67 197.65Q201.80 197.31 201.16 196.65Q200.51 195.99 200.14 195.02Q199.77 194.04 199.77 192.76L199.77 192.76Q199.77 191.76 200.09 190.88Q200.41 190.01 201.02 189.36Q201.62 188.70 202.49 188.32Q203.36 187.94 204.45 187.94L204.45 187.94Q205.37 187.94 206.15 188.24Q206.93 188.53 207.49 189.10Q208.05 189.66 208.37 190.49Q208.69 191.31 208.69 192.36L208.69 192.36Q208.69 192.89 208.57 193.08Q208.46 193.26 208.14 193.26L208.14 193.26Z" fill="#999999"/></svg>